<?xml version="1.0" encoding="UTF-8" standalone="no"?>
<svg
   xmlns:dc="http://purl.org/dc/elements/1.1/"
   xmlns:cc="http://creativecommons.org/ns#"
   xmlns:rdf="http://www.w3.org/1999/02/22-rdf-syntax-ns#"
   xmlns:svg="http://www.w3.org/2000/svg"
   xmlns="http://www.w3.org/2000/svg"
   xmlns:sodipodi="http://sodipodi.sourceforge.net/DTD/sodipodi-0.dtd"
   xmlns:inkscape="http://www.inkscape.org/namespaces/inkscape"
   width="103.35593mm"
   height="104.22871mm"
   viewBox="0 0 366.2218 369.3143"
   id="svg2"
   version="1.1"
   inkscape:version="1.0 (4035a4fb49, 2020-05-01)"
   sodipodi:docname="2048.svg"
   inkscape:export-filename="/home/manu/Bureau/zzz.svg.png"
   inkscape:export-xdpi="200"
   inkscape:export-ydpi="200">
  <sodipodi:namedview
     inkscape:document-rotation="0"
     id="base"
     pagecolor="#ffffff"
     bordercolor="#666666"
     borderopacity="1.0"
     inkscape:pageopacity="1"
     inkscape:pageshadow="2"
     inkscape:zoom="0.61092899"
     inkscape:cx="-173.07397"
     inkscape:cy="475.92601"
     inkscape:document-units="px"
     inkscape:current-layer="g4735"
     showgrid="true"
     inkscape:window-width="960"
     inkscape:window-height="1020"
     inkscape:window-x="0"
     inkscape:window-y="32"
     inkscape:window-maximized="0"
     inkscape:object-nodes="true"
     inkscape:object-paths="true"
     showborder="false"
     inkscape:snap-global="false"
     showguides="true"
     inkscape:guide-bbox="true"
     inkscape:snap-object-midpoints="true"
     inkscape:snap-smooth-nodes="true"
     inkscape:snap-intersection-paths="true"
     inkscape:snap-center="true"
     fit-margin-top="0"
     fit-margin-left="0"
     fit-margin-right="0"
     fit-margin-bottom="0" />
  <defs
     id="defs4">
    <filter
       height="1.5232"
       y="-0.26159999"
       width="1.5232"
       x="-0.26160002"
       id="filter4731"
       style="color-interpolation-filters:sRGB"
       inkscape:collect="always">
      <feGaussianBlur
         id="feGaussianBlur4733"
         stdDeviation="10.899998"
         inkscape:collect="always" />
    </filter>
  </defs>
  <metadata
     id="metadata7">
    <rdf:RDF>
      <cc:Work
         rdf:about="">
        <dc:format>image/svg+xml</dc:format>
        <dc:type
           rdf:resource="http://purl.org/dc/dcmitype/StillImage" />
        <dc:title></dc:title>
      </cc:Work>
    </rdf:RDF>
  </metadata>
  <style
     type="text/css"
     id="style5913">
	.st0{fill:#85BB5F;stroke:#000;stroke-width:0.25;}
	.st1{fill:#3D7B3E;stroke:#000;stroke-linejoin:round;}
	.st2{fill:#94C473;}
</style>
  <style
     id="style5913-0"
     type="text/css">
	.st0{fill:#85BB5F;stroke:#000;stroke-width:0.25;}
	.st1{fill:#3D7B3E;stroke:#000;stroke-linejoin:round;}
	.st2{fill:#94C473;}
</style>
  <g
     transform="translate(-175.18474,-546.6347)"
     style="display:inline;opacity:1"
     inkscape:label="dessin"
     id="layer2"
     inkscape:groupmode="layer">
    <g
       id="g4735">
      <rect
         style="color:#000000;clip-rule:nonzero;display:inline;overflow:visible;visibility:visible;opacity:1;isolation:auto;mix-blend-mode:normal;color-interpolation:sRGB;color-interpolation-filters:linearRGB;solid-color:#000000;solid-opacity:1;fill:#bbada0;fill-opacity:0;fill-rule:evenodd;stroke:#000000;stroke-width:1px;stroke-linecap:butt;stroke-linejoin:miter;stroke-miterlimit:4;stroke-dasharray:none;stroke-dashoffset:0;stroke-opacity:1;color-rendering:auto;image-rendering:auto;shape-rendering:auto;text-rendering:auto;enable-background:accumulate"
         id="rect4569"
         width="353.67569"
         height="356.66953"
         x="175.68474"
         y="547.1347"
         rx="4.9850359"
         ry="4.9850359" />
      <path
         inkscape:connector-curvature="0"
         id="path4701"
         d="m 418.53237,789.78901 h 93.42837 c 1.82033,0 3.2858,1.46547 3.2858,3.28581 v 93.42837 c 0,1.82034 -1.46547,3.28581 -3.2858,3.28581 h -93.42837 c -1.82034,0 -3.28581,-1.46547 -3.28581,-3.28581 v -93.42837 c 0,-1.82034 1.46547,-3.28581 3.28581,-3.28581 z"
         style="color:#000000;clip-rule:nonzero;display:inline;overflow:visible;visibility:visible;opacity:1;isolation:auto;mix-blend-mode:normal;color-interpolation:sRGB;color-interpolation-filters:linearRGB;solid-color:#000000;solid-opacity:1;fill:#ffff00;fill-opacity:0;fill-rule:evenodd;stroke:none;stroke-width:1px;stroke-linecap:butt;stroke-linejoin:miter;stroke-miterlimit:4;stroke-dasharray:none;stroke-dashoffset:0;stroke-opacity:1;filter:url(#filter4731);color-rendering:auto;image-rendering:auto;shape-rendering:auto;text-rendering:auto;enable-background:accumulate" />
      <path
         style="color:#000000;clip-rule:nonzero;display:inline;overflow:visible;visibility:visible;opacity:1;isolation:auto;mix-blend-mode:normal;color-interpolation:sRGB;color-interpolation-filters:linearRGB;solid-color:#000000;solid-opacity:1;fill:#edc22e;fill-opacity:0;fill-rule:evenodd;stroke:#000000;stroke-width:1px;stroke-linecap:butt;stroke-linejoin:miter;stroke-miterlimit:4;stroke-dasharray:none;stroke-dashoffset:0;stroke-opacity:1;color-rendering:auto;image-rendering:auto;shape-rendering:auto;text-rendering:auto;enable-background:accumulate"
         d="m 418.53237,789.78901 h 93.42837 c 1.82033,0 3.2858,1.46547 3.2858,3.28581 v 93.42837 c 0,1.82034 -1.46547,3.28581 -3.2858,3.28581 h -93.42837 c -1.82034,0 -3.28581,-1.46547 -3.28581,-3.28581 v -93.42837 c 0,-1.82034 1.46547,-3.28581 3.28581,-3.28581 z"
         id="path4271"
         inkscape:connector-curvature="0" />
      <path
         inkscape:connector-curvature="0"
         id="path4275"
         style="color:#000000;clip-rule:nonzero;display:inline;overflow:visible;visibility:visible;opacity:1;isolation:auto;mix-blend-mode:normal;color-interpolation:sRGB;color-interpolation-filters:linearRGB;solid-color:#000000;solid-opacity:1;fill:#eee4da;fill-opacity:0;fill-rule:evenodd;stroke:#000000;stroke-width:1;stroke-linecap:butt;stroke-linejoin:miter;stroke-miterlimit:4;stroke-dasharray:none;stroke-dashoffset:0;stroke-opacity:1;color-rendering:auto;image-rendering:auto;shape-rendering:auto;text-rendering:auto;enable-background:accumulate"
         d="m 305.12971,789.78901 c 0,0 93.42837,0 93.42837,0 1.82034,0 3.28581,1.46547 3.28581,3.28581 0,0 0,93.42837 0,93.42837 0,1.82034 -1.46547,3.28581 -3.28581,3.28581 0,0 -93.42837,0 -93.42837,0 -1.82034,0 -3.28581,-1.46547 -3.28581,-3.28581 0,0 0,-93.42837 0,-93.42837 0,-1.82034 1.46547,-3.28581 3.28581,-3.28581 0,0 0,0 0,0" />
      <path
         inkscape:connector-curvature="0"
         id="path4277"
         style="color:#000000;clip-rule:nonzero;display:inline;overflow:visible;visibility:visible;opacity:1;isolation:auto;mix-blend-mode:normal;color-interpolation:sRGB;color-interpolation-filters:linearRGB;solid-color:#000000;solid-opacity:1;fill:#ede0c8;fill-opacity:0;fill-rule:evenodd;stroke:#000000;stroke-width:1;stroke-linecap:butt;stroke-linejoin:miter;stroke-miterlimit:4;stroke-dasharray:none;stroke-dashoffset:0;stroke-opacity:1;color-rendering:auto;image-rendering:auto;shape-rendering:auto;text-rendering:auto;enable-background:accumulate"
         d="m 191.72706,789.78901 c 0,0 93.42837,0 93.42837,0 1.82033,0 3.2858,1.46547 3.2858,3.28581 0,0 0,93.42837 0,93.42837 0,1.82034 -1.46547,3.28581 -3.2858,3.28581 0,0 -93.42837,0 -93.42837,0 -1.82034,0 -3.28581,-1.46547 -3.28581,-3.28581 0,0 0,-93.42837 0,-93.42837 0,-1.82034 1.46547,-3.28581 3.28581,-3.28581 0,0 0,0 0,0" />
      <path
         inkscape:connector-curvature="0"
         d="m 191.72706,562.26668 c 0,0 93.42837,0 93.42837,0 1.82033,0 3.2858,1.46547 3.2858,3.28581 0,0 0,93.42837 0,93.42837 0,1.82034 -1.46547,3.28581 -3.2858,3.28581 0,0 -93.42837,0 -93.42837,0 -1.82034,0 -3.28581,-1.46547 -3.28581,-3.28581 0,0 0,-93.42837 0,-93.42837 0,-1.82034 1.46547,-3.28581 3.28581,-3.28581 0,0 0,0 0,0"
         style="color:#000000;clip-rule:nonzero;display:inline;overflow:visible;visibility:visible;opacity:1;isolation:auto;mix-blend-mode:normal;color-interpolation:sRGB;color-interpolation-filters:linearRGB;solid-color:#000000;solid-opacity:1;fill:#ffe0c8;fill-opacity:0;fill-rule:evenodd;stroke:#000000;stroke-width:1;stroke-linecap:butt;stroke-linejoin:miter;stroke-miterlimit:4;stroke-dasharray:none;stroke-dashoffset:0;stroke-opacity:1;color-rendering:auto;image-rendering:auto;shape-rendering:auto;text-rendering:auto;enable-background:accumulate"
         id="path4382" />
      <path
         inkscape:connector-curvature="0"
         d="m 191.72706,676.02785 c 0,0 93.42837,0 93.42837,0 1.82033,0 3.2858,1.46547 3.2858,3.28581 0,0 0,93.42837 0,93.42837 0,1.82034 -1.46547,3.28581 -3.2858,3.28581 0,0 -93.42837,0 -93.42837,0 -1.82034,0 -3.28581,-1.46547 -3.28581,-3.28581 0,0 0,-93.42837 0,-93.42837 0,-1.82034 1.46547,-3.28581 3.28581,-3.28581 0,0 0,0 0,0"
         style="color:#000000;clip-rule:nonzero;display:inline;overflow:visible;visibility:visible;opacity:1;isolation:auto;mix-blend-mode:normal;color-interpolation:sRGB;color-interpolation-filters:linearRGB;solid-color:#000000;solid-opacity:1;fill:#f2b179;fill-opacity:0;fill-rule:evenodd;stroke:#000000;stroke-width:1;stroke-linecap:butt;stroke-linejoin:miter;stroke-miterlimit:4;stroke-dasharray:none;stroke-dashoffset:0;stroke-opacity:1;color-rendering:auto;image-rendering:auto;shape-rendering:auto;text-rendering:auto;enable-background:accumulate"
         id="path4384" />
      <path
         inkscape:connector-curvature="0"
         id="path4448"
         style="color:#000000;clip-rule:nonzero;display:inline;overflow:visible;visibility:visible;opacity:1;isolation:auto;mix-blend-mode:normal;color-interpolation:sRGB;color-interpolation-filters:linearRGB;solid-color:#000000;solid-opacity:1;fill:#f67c5f;fill-opacity:0;fill-rule:evenodd;stroke:#000000;stroke-width:1;stroke-linecap:butt;stroke-linejoin:miter;stroke-miterlimit:4;stroke-dasharray:none;stroke-dashoffset:0;stroke-opacity:1;color-rendering:auto;image-rendering:auto;shape-rendering:auto;text-rendering:auto;enable-background:accumulate"
         d="m 305.12971,562.26668 c 0,0 93.42837,0 93.42837,0 1.82034,0 3.28581,1.46547 3.28581,3.28581 0,0 0,93.42837 0,93.42837 0,1.82034 -1.46547,3.28581 -3.28581,3.28581 0,0 -93.42837,0 -93.42837,0 -1.82034,0 -3.28581,-1.46547 -3.28581,-3.28581 0,0 0,-93.42837 0,-93.42837 0,-1.82034 1.46547,-3.28581 3.28581,-3.28581 0,0 0,0 0,0" />
      <path
         inkscape:connector-curvature="0"
         id="path4450"
         style="color:#000000;clip-rule:nonzero;display:inline;overflow:visible;visibility:visible;opacity:1;isolation:auto;mix-blend-mode:normal;color-interpolation:sRGB;color-interpolation-filters:linearRGB;solid-color:#000000;solid-opacity:1;fill:#f65e3b;fill-opacity:0;fill-rule:evenodd;stroke:#000000;stroke-width:1;stroke-linecap:butt;stroke-linejoin:miter;stroke-miterlimit:4;stroke-dasharray:none;stroke-dashoffset:0;stroke-opacity:1;color-rendering:auto;image-rendering:auto;shape-rendering:auto;text-rendering:auto;enable-background:accumulate"
         d="m 305.12971,676.02785 c 0,0 93.42837,0 93.42837,0 1.82034,0 3.28581,1.46547 3.28581,3.28581 0,0 0,93.42837 0,93.42837 0,1.82034 -1.46547,3.28581 -3.28581,3.28581 0,0 -93.42837,0 -93.42837,0 -1.82034,0 -3.28581,-1.46547 -3.28581,-3.28581 0,0 0,-93.42837 0,-93.42837 0,-1.82034 1.46547,-3.28581 3.28581,-3.28581 0,0 0,0 0,0" />
      <path
         inkscape:connector-curvature="0"
         d="m 418.53237,562.26668 c 0,0 93.42837,0 93.42837,0 1.82033,0 3.2858,1.46547 3.2858,3.28581 0,0 0,93.42837 0,93.42837 0,1.82034 -1.46547,3.28581 -3.2858,3.28581 0,0 -93.42837,0 -93.42837,0 -1.82034,0 -3.28581,-1.46547 -3.28581,-3.28581 0,0 0,-93.42837 0,-93.42837 0,-1.82034 1.46547,-3.28581 3.28581,-3.28581 0,0 0,0 0,0"
         style="color:#000000;clip-rule:nonzero;display:inline;overflow:visible;visibility:visible;opacity:1;isolation:auto;mix-blend-mode:normal;color-interpolation:sRGB;color-interpolation-filters:linearRGB;solid-color:#000000;solid-opacity:1;fill:#eee4da;fill-opacity:0;fill-rule:evenodd;stroke:#000000;stroke-width:1;stroke-linecap:butt;stroke-linejoin:miter;stroke-miterlimit:4;stroke-dasharray:none;stroke-dashoffset:0;stroke-opacity:1;color-rendering:auto;image-rendering:auto;shape-rendering:auto;text-rendering:auto;enable-background:accumulate"
         id="path4520" />
      <path
         inkscape:connector-curvature="0"
         d="m 418.53237,676.02785 c 0,0 93.42837,0 93.42837,0 1.82033,0 3.2858,1.46547 3.2858,3.28581 0,0 0,93.42837 0,93.42837 0,1.82034 -1.46547,3.28581 -3.2858,3.28581 0,0 -93.42837,0 -93.42837,0 -1.82034,0 -3.28581,-1.46547 -3.28581,-3.28581 0,0 0,-93.42837 0,-93.42837 0,-1.82034 1.46547,-3.28581 3.28581,-3.28581 0,0 0,0 0,0"
         style="color:#000000;clip-rule:nonzero;display:inline;overflow:visible;visibility:visible;opacity:1;isolation:auto;mix-blend-mode:normal;color-interpolation:sRGB;color-interpolation-filters:linearRGB;solid-color:#000000;solid-opacity:1;fill:#edcf72;fill-opacity:0;fill-rule:evenodd;stroke:#000000;stroke-width:1;stroke-linecap:butt;stroke-linejoin:miter;stroke-miterlimit:4;stroke-dasharray:none;stroke-dashoffset:0;stroke-opacity:1;color-rendering:auto;image-rendering:auto;shape-rendering:auto;text-rendering:auto;enable-background:accumulate"
         id="path4522" />
      <text
         id="text4575"
         y="630.82135"
         x="465.93015"
         style="color:#000000;font-style:normal;font-variant:normal;font-weight:bold;font-stretch:normal;line-height:0%;font-family:sans-serif;-inkscape-font-specification:'sans-serif Bold';text-indent:0;text-align:center;text-decoration:none;text-decoration-line:none;text-decoration-style:solid;text-decoration-color:#000000;letter-spacing:0px;word-spacing:0px;text-transform:none;writing-mode:lr-tb;direction:ltr;baseline-shift:baseline;text-anchor:middle;white-space:normal;clip-rule:nonzero;display:inline;overflow:visible;visibility:visible;opacity:1;isolation:auto;mix-blend-mode:normal;color-interpolation:sRGB;color-interpolation-filters:linearRGB;solid-color:#000000;solid-opacity:1;fill:#000000;fill-opacity:1;fill-rule:nonzero;stroke:none;stroke-width:1px;stroke-linecap:butt;stroke-linejoin:miter;stroke-miterlimit:4;stroke-dasharray:none;stroke-dashoffset:0;stroke-opacity:1;color-rendering:auto;image-rendering:auto;shape-rendering:auto;text-rendering:auto;enable-background:accumulate"
         xml:space="preserve"><tspan
           style="font-size:50px;line-height:1.25;fill:#000000;fill-opacity:1"
           y="630.82135"
           x="465.93015"
           id="tspan4577"
           sodipodi:role="line">2</tspan></text>
      <text
         xml:space="preserve"
         style="color:#000000;font-style:normal;font-variant:normal;font-weight:bold;font-stretch:normal;line-height:0%;font-family:sans-serif;-inkscape-font-specification:'sans-serif Bold';text-indent:0;text-align:center;text-decoration:none;text-decoration-line:none;text-decoration-style:solid;text-decoration-color:#000000;letter-spacing:0px;word-spacing:0px;text-transform:none;writing-mode:lr-tb;direction:ltr;baseline-shift:baseline;text-anchor:middle;white-space:normal;clip-rule:nonzero;display:inline;overflow:visible;visibility:visible;opacity:1;isolation:auto;mix-blend-mode:normal;color-interpolation:sRGB;color-interpolation-filters:linearRGB;solid-color:#000000;solid-opacity:1;fill:#000000;fill-opacity:1;fill-rule:nonzero;stroke:none;stroke-width:1px;stroke-linecap:butt;stroke-linejoin:miter;stroke-miterlimit:4;stroke-dasharray:none;stroke-dashoffset:0;stroke-opacity:1;color-rendering:auto;image-rendering:auto;shape-rendering:auto;text-rendering:auto;enable-background:accumulate"
         x="352.5275"
         y="858.34369"
         id="text4583"><tspan
           style="font-size:50px;line-height:1.25;fill:#000000;fill-opacity:1"
           sodipodi:role="line"
           id="tspan4585"
           x="352.5275"
           y="858.34369">2</tspan></text>
      <text
         id="text4587"
         y="630.82135"
         x="239.12483"
         style="font-style:normal;font-variant:normal;font-weight:bold;font-stretch:normal;line-height:0%;font-family:sans-serif;-inkscape-font-specification:'sans-serif Bold';text-align:center;letter-spacing:0px;word-spacing:0px;text-anchor:middle;fill:#000000;fill-opacity:1;stroke:none;stroke-width:1px;stroke-linecap:butt;stroke-linejoin:miter;stroke-opacity:1"
         xml:space="preserve"><tspan
           style="font-size:50px;line-height:1.25;fill:#000000;fill-opacity:1"
           y="630.82135"
           x="239.12483"
           id="tspan4589"
           sodipodi:role="line">4</tspan></text>
      <text
         id="text4595"
         y="744.25293"
         x="239.12483"
         style="font-style:normal;font-variant:normal;font-weight:bold;font-stretch:normal;line-height:0%;font-family:sans-serif;-inkscape-font-specification:'sans-serif Bold';text-align:center;letter-spacing:0px;word-spacing:0px;text-anchor:middle;fill:#000000;fill-opacity:1;stroke:none;stroke-width:1px;stroke-linecap:butt;stroke-linejoin:miter;stroke-opacity:1"
         xml:space="preserve"><tspan
           style="font-size:50px;line-height:1.25;fill:#000000;fill-opacity:1"
           y="744.25293"
           x="239.12483"
           id="tspan4597"
           sodipodi:role="line">8</tspan></text>
      <text
         xml:space="preserve"
         style="color:#000000;font-style:normal;font-variant:normal;font-weight:bold;font-stretch:normal;line-height:0%;font-family:sans-serif;-inkscape-font-specification:'sans-serif Bold';text-indent:0;text-align:center;text-decoration:none;text-decoration-line:none;text-decoration-style:solid;text-decoration-color:#000000;letter-spacing:0px;word-spacing:0px;text-transform:none;writing-mode:lr-tb;direction:ltr;baseline-shift:baseline;text-anchor:middle;white-space:normal;clip-rule:nonzero;display:inline;overflow:visible;visibility:visible;opacity:1;isolation:auto;mix-blend-mode:normal;color-interpolation:sRGB;color-interpolation-filters:linearRGB;solid-color:#000000;solid-opacity:1;fill:#000000;fill-opacity:1;fill-rule:nonzero;stroke:none;stroke-width:1px;stroke-linecap:butt;stroke-linejoin:miter;stroke-miterlimit:4;stroke-dasharray:none;stroke-dashoffset:0;stroke-opacity:1;color-rendering:auto;image-rendering:auto;shape-rendering:auto;text-rendering:auto;enable-background:accumulate"
         x="351.86832"
         y="744.22852"
         id="text4601"><tspan
           style="font-size:50px;line-height:1.25;fill:#000000;fill-opacity:1;stroke:none;stroke-opacity:1"
           sodipodi:role="line"
           id="tspan4603"
           x="351.86832"
           y="744.22852">64</tspan></text>
      <text
         xml:space="preserve"
         style="color:#000000;font-style:normal;font-variant:normal;font-weight:bold;font-stretch:normal;line-height:0%;font-family:sans-serif;-inkscape-font-specification:'sans-serif Bold';text-indent:0;text-align:center;text-decoration:none;text-decoration-line:none;text-decoration-style:solid;text-decoration-color:#000000;letter-spacing:0px;word-spacing:0px;text-transform:none;writing-mode:lr-tb;direction:ltr;baseline-shift:baseline;text-anchor:middle;white-space:normal;clip-rule:nonzero;display:inline;overflow:visible;visibility:visible;opacity:1;isolation:auto;mix-blend-mode:normal;color-interpolation:sRGB;color-interpolation-filters:linearRGB;solid-color:#000000;solid-opacity:1;fill:#000000;fill-opacity:1;fill-rule:nonzero;stroke:none;stroke-width:1px;stroke-linecap:butt;stroke-linejoin:miter;stroke-miterlimit:4;stroke-dasharray:none;stroke-dashoffset:0;stroke-opacity:1;color-rendering:auto;image-rendering:auto;shape-rendering:auto;text-rendering:auto;enable-background:accumulate"
         x="486.21512"
         y="708.20142"
         id="text4609"
         transform="scale(0.95480097,1.0473387)"><tspan
           style="font-size:41.1779px;line-height:1.25;fill:#000000;fill-opacity:1"
           sodipodi:role="line"
           id="tspan4611"
           x="486.21512"
           y="708.20142">128</tspan></text>
      <text
         id="text4613"
         y="851.40332"
         x="466.05627"
         style="color:#000000;font-style:normal;font-variant:normal;font-weight:bold;font-stretch:normal;line-height:0%;font-family:sans-serif;-inkscape-font-specification:'sans-serif Bold';text-indent:0;text-align:center;text-decoration:none;text-decoration-line:none;text-decoration-style:solid;text-decoration-color:#000000;letter-spacing:0px;word-spacing:0px;text-transform:none;writing-mode:lr-tb;direction:ltr;baseline-shift:baseline;text-anchor:middle;white-space:normal;clip-rule:nonzero;display:inline;overflow:visible;visibility:visible;opacity:1;isolation:auto;mix-blend-mode:normal;color-interpolation:sRGB;color-interpolation-filters:linearRGB;solid-color:#000000;solid-opacity:1;fill:#000000;fill-opacity:1;fill-rule:nonzero;stroke:none;stroke-width:1px;stroke-linecap:butt;stroke-linejoin:miter;stroke-miterlimit:4;stroke-dasharray:none;stroke-dashoffset:0;stroke-opacity:1;color-rendering:auto;image-rendering:auto;shape-rendering:auto;text-rendering:auto;enable-background:accumulate"
         xml:space="preserve"><tspan
           style="font-size:31.9062px;line-height:1.25;fill:#000000;fill-opacity:1"
           y="851.40332"
           x="466.05627"
           id="tspan4615"
           sodipodi:role="line">2048</tspan></text>
    </g>
  </g>
</svg>
