<?xml version="1.0" encoding="UTF-8" standalone="no"?>
<svg
   xmlns:dc="http://purl.org/dc/elements/1.1/"
   xmlns:cc="http://creativecommons.org/ns#"
   xmlns:rdf="http://www.w3.org/1999/02/22-rdf-syntax-ns#"
   xmlns:svg="http://www.w3.org/2000/svg"
   xmlns="http://www.w3.org/2000/svg"
   xmlns:sodipodi="http://sodipodi.sourceforge.net/DTD/sodipodi-0.dtd"
   xmlns:inkscape="http://www.inkscape.org/namespaces/inkscape"
   inkscape:version="1.0 (4035a4fb49, 2020-05-01)"
   sodipodi:docname="2048_.svg"
   xml:space="preserve"
   style="enable-background:new 0 0 512 512;"
   viewBox="0 0 512 512"
   height="512px"
   width="512px"
   y="0px"
   x="0px"
   id="Layer_1"
   version="1.1"><metadata
   id="metadata29"><rdf:RDF><cc:Work
       rdf:about=""><dc:format>image/svg+xml</dc:format><dc:type
         rdf:resource="http://purl.org/dc/dcmitype/StillImage" /></cc:Work></rdf:RDF></metadata><defs
   id="defs27"><filter
     inkscape:collect="always"
     style="color-interpolation-filters:sRGB"
     id="filter4731"
     x="-0.26160002"
     width="1.5232"
     y="-0.26159999"
     height="1.5232"><feGaussianBlur
       inkscape:collect="always"
       stdDeviation="10.899998"
       id="feGaussianBlur4733" /></filter></defs><sodipodi:namedview
   inkscape:current-layer="g1001"
   inkscape:window-maximized="1"
   inkscape:window-y="32"
   inkscape:window-x="0"
   inkscape:cy="307.36381"
   inkscape:cx="409.40933"
   inkscape:zoom="1.158716"
   showgrid="false"
   id="namedview25"
   inkscape:window-height="1020"
   inkscape:window-width="1920"
   inkscape:pageshadow="2"
   inkscape:pageopacity="0"
   guidetolerance="10"
   gridtolerance="10"
   objecttolerance="10"
   borderopacity="1"
   bordercolor="#666666"
   pagecolor="#ffffff" />

<g
   transform="translate(-32.914264,2.1978225)"
   id="g1001"><rect
     style="color:#000000;clip-rule:nonzero;display:inline;overflow:visible;visibility:visible;opacity:1;isolation:auto;mix-blend-mode:normal;color-interpolation:sRGB;color-interpolation-filters:linearRGB;solid-color:#000000;solid-opacity:1;fill:#bbada0;fill-opacity:0;fill-rule:evenodd;stroke:#000000;stroke-width:8;stroke-linecap:butt;stroke-linejoin:miter;stroke-miterlimit:4;stroke-dasharray:none;stroke-dashoffset:0;stroke-opacity:1;color-rendering:auto;image-rendering:auto;shape-rendering:auto;text-rendering:auto;enable-background:accumulate"
     id="rect4569"
     width="377.25409"
     height="380.44751"
     x="96.254387"
     y="59.492966"
     rx="5.3173718"
     ry="5.3173718" /><path
     inkscape:connector-curvature="0"
     id="path4701"
     d="m 418.53237,789.78901 h 93.42837 c 1.82033,0 3.2858,1.46547 3.2858,3.28581 v 93.42837 c 0,1.82034 -1.46547,3.28581 -3.2858,3.28581 h -93.42837 c -1.82034,0 -3.28581,-1.46547 -3.28581,-3.28581 v -93.42837 c 0,-1.82034 1.46547,-3.28581 3.28581,-3.28581 z"
     style="color:#000000;clip-rule:nonzero;display:inline;overflow:visible;visibility:visible;opacity:1;isolation:auto;mix-blend-mode:normal;color-interpolation:sRGB;color-interpolation-filters:linearRGB;solid-color:#000000;solid-opacity:1;fill:#ffff00;fill-opacity:0;fill-rule:evenodd;stroke:none;stroke-width:1px;stroke-linecap:butt;stroke-linejoin:miter;stroke-miterlimit:4;stroke-dasharray:none;stroke-dashoffset:0;stroke-opacity:1;filter:url(#filter4731);color-rendering:auto;image-rendering:auto;shape-rendering:auto;text-rendering:auto;enable-background:accumulate"
     transform="matrix(1.0666667,0,0,1.0666667,-91.142683,-524.11741)" /><path
     style="color:#000000;clip-rule:nonzero;display:inline;overflow:visible;visibility:visible;opacity:1;isolation:auto;mix-blend-mode:normal;color-interpolation:sRGB;color-interpolation-filters:linearRGB;solid-color:#000000;solid-opacity:1;fill:#edc22e;fill-opacity:0;fill-rule:evenodd;stroke:#000000;stroke-width:8;stroke-linecap:butt;stroke-linejoin:miter;stroke-miterlimit:4;stroke-dasharray:none;stroke-dashoffset:0;stroke-opacity:1;color-rendering:auto;image-rendering:auto;shape-rendering:auto;text-rendering:auto;enable-background:accumulate"
     d="m 355.29186,318.32423 h 99.65693 c 1.94169,0 3.50486,1.56316 3.50486,3.50486 v 99.65693 c 0,1.9417 -1.56317,3.50487 -3.50486,3.50487 h -99.65693 c -1.9417,0 -3.50486,-1.56317 -3.50486,-3.50487 v -99.65693 c 0,-1.9417 1.56316,-3.50486 3.50486,-3.50486 z"
     id="path4271"
     inkscape:connector-curvature="0" /><path
     inkscape:connector-curvature="0"
     id="path4275"
     style="color:#000000;clip-rule:nonzero;display:inline;overflow:visible;visibility:visible;opacity:1;isolation:auto;mix-blend-mode:normal;color-interpolation:sRGB;color-interpolation-filters:linearRGB;solid-color:#000000;solid-opacity:1;fill:#eee4da;fill-opacity:0;fill-rule:evenodd;stroke:#000000;stroke-width:8;stroke-linecap:butt;stroke-linejoin:miter;stroke-miterlimit:4;stroke-dasharray:none;stroke-dashoffset:0;stroke-opacity:1;color-rendering:auto;image-rendering:auto;shape-rendering:auto;text-rendering:auto;enable-background:accumulate"
     d="m 234.32902,318.32423 c 0,0 99.65693,0 99.65693,0 1.9417,0 3.50486,1.56316 3.50486,3.50486 0,0 0,99.65693 0,99.65693 0,1.9417 -1.56316,3.50487 -3.50486,3.50487 0,0 -99.65693,0 -99.65693,0 -1.9417,0 -3.50486,-1.56317 -3.50486,-3.50487 0,0 0,-99.65693 0,-99.65693 0,-1.9417 1.56316,-3.50486 3.50486,-3.50486 0,0 0,0 0,0" /><path
     inkscape:connector-curvature="0"
     id="path4277"
     style="color:#000000;clip-rule:nonzero;display:inline;overflow:visible;visibility:visible;opacity:1;isolation:auto;mix-blend-mode:normal;color-interpolation:sRGB;color-interpolation-filters:linearRGB;solid-color:#000000;solid-opacity:1;fill:#ede0c8;fill-opacity:0;fill-rule:evenodd;stroke:#000000;stroke-width:8;stroke-linecap:butt;stroke-linejoin:miter;stroke-miterlimit:4;stroke-dasharray:none;stroke-dashoffset:0;stroke-opacity:1;color-rendering:auto;image-rendering:auto;shape-rendering:auto;text-rendering:auto;enable-background:accumulate"
     d="m 113.36619,318.32423 c 0,0 99.65693,0 99.65693,0 1.94169,0 3.50485,1.56316 3.50485,3.50486 0,0 0,99.65693 0,99.65693 0,1.9417 -1.56316,3.50487 -3.50485,3.50487 0,0 -99.65693,0 -99.65693,0 -1.9417,0 -3.50486,-1.56317 -3.50486,-3.50487 0,0 0,-99.65693 0,-99.65693 0,-1.9417 1.56316,-3.50486 3.50486,-3.50486 0,0 0,0 0,0" /><path
     inkscape:connector-curvature="0"
     d="m 113.36619,75.633739 c 0,0 99.65693,0 99.65693,0 1.94169,0 3.50485,1.56317 3.50485,3.50487 0,0 0,99.656921 0,99.656921 0,1.94169 -1.56316,3.50486 -3.50485,3.50486 0,0 -99.65693,0 -99.65693,0 -1.9417,0 -3.50486,-1.56317 -3.50486,-3.50486 0,0 0,-99.656921 0,-99.656921 0,-1.9417 1.56316,-3.50487 3.50486,-3.50487 0,0 0,0 0,0"
     style="color:#000000;clip-rule:nonzero;display:inline;overflow:visible;visibility:visible;opacity:1;isolation:auto;mix-blend-mode:normal;color-interpolation:sRGB;color-interpolation-filters:linearRGB;solid-color:#000000;solid-opacity:1;fill:#ffe0c8;fill-opacity:0;fill-rule:evenodd;stroke:#000000;stroke-width:8;stroke-linecap:butt;stroke-linejoin:miter;stroke-miterlimit:4;stroke-dasharray:none;stroke-dashoffset:0;stroke-opacity:1;color-rendering:auto;image-rendering:auto;shape-rendering:auto;text-rendering:auto;enable-background:accumulate"
     id="path4382" /><path
     inkscape:connector-curvature="0"
     d="m 113.36619,196.97898 c 0,0 99.65693,0 99.65693,0 1.94169,0 3.50485,1.56317 3.50485,3.50487 0,0 0,99.65693 0,99.65693 0,1.9417 -1.56316,3.50486 -3.50485,3.50486 0,0 -99.65693,0 -99.65693,0 -1.9417,0 -3.50486,-1.56316 -3.50486,-3.50486 0,0 0,-99.65693 0,-99.65693 0,-1.9417 1.56316,-3.50487 3.50486,-3.50487 0,0 0,0 0,0"
     style="color:#000000;clip-rule:nonzero;display:inline;overflow:visible;visibility:visible;opacity:1;isolation:auto;mix-blend-mode:normal;color-interpolation:sRGB;color-interpolation-filters:linearRGB;solid-color:#000000;solid-opacity:1;fill:#f2b179;fill-opacity:0;fill-rule:evenodd;stroke:#000000;stroke-width:8;stroke-linecap:butt;stroke-linejoin:miter;stroke-miterlimit:4;stroke-dasharray:none;stroke-dashoffset:0;stroke-opacity:1;color-rendering:auto;image-rendering:auto;shape-rendering:auto;text-rendering:auto;enable-background:accumulate"
     id="path4384" /><path
     inkscape:connector-curvature="0"
     id="path4448"
     style="color:#000000;clip-rule:nonzero;display:inline;overflow:visible;visibility:visible;opacity:1;isolation:auto;mix-blend-mode:normal;color-interpolation:sRGB;color-interpolation-filters:linearRGB;solid-color:#000000;solid-opacity:1;fill:#f67c5f;fill-opacity:0;fill-rule:evenodd;stroke:#000000;stroke-width:8;stroke-linecap:butt;stroke-linejoin:miter;stroke-miterlimit:4;stroke-dasharray:none;stroke-dashoffset:0;stroke-opacity:1;color-rendering:auto;image-rendering:auto;shape-rendering:auto;text-rendering:auto;enable-background:accumulate"
     d="m 234.32902,75.633739 c 0,0 99.65693,0 99.65693,0 1.9417,0 3.50486,1.56317 3.50486,3.50487 0,0 0,99.656921 0,99.656921 0,1.94169 -1.56316,3.50486 -3.50486,3.50486 0,0 -99.65693,0 -99.65693,0 -1.9417,0 -3.50486,-1.56317 -3.50486,-3.50486 0,0 0,-99.656921 0,-99.656921 0,-1.9417 1.56316,-3.50487 3.50486,-3.50487 0,0 0,0 0,0" /><path
     inkscape:connector-curvature="0"
     id="path4450"
     style="color:#000000;clip-rule:nonzero;display:inline;overflow:visible;visibility:visible;opacity:1;isolation:auto;mix-blend-mode:normal;color-interpolation:sRGB;color-interpolation-filters:linearRGB;solid-color:#000000;solid-opacity:1;fill:#f65e3b;fill-opacity:0;fill-rule:evenodd;stroke:#000000;stroke-width:8;stroke-linecap:butt;stroke-linejoin:miter;stroke-miterlimit:4;stroke-dasharray:none;stroke-dashoffset:0;stroke-opacity:1;color-rendering:auto;image-rendering:auto;shape-rendering:auto;text-rendering:auto;enable-background:accumulate"
     d="m 234.32902,196.97898 c 0,0 99.65693,0 99.65693,0 1.9417,0 3.50486,1.56317 3.50486,3.50487 0,0 0,99.65693 0,99.65693 0,1.9417 -1.56316,3.50486 -3.50486,3.50486 0,0 -99.65693,0 -99.65693,0 -1.9417,0 -3.50486,-1.56316 -3.50486,-3.50486 0,0 0,-99.65693 0,-99.65693 0,-1.9417 1.56316,-3.50487 3.50486,-3.50487 0,0 0,0 0,0" /><path
     inkscape:connector-curvature="0"
     d="m 355.29186,75.633739 c 0,0 99.65693,0 99.65693,0 1.94169,0 3.50486,1.56317 3.50486,3.50487 0,0 0,99.656921 0,99.656921 0,1.94169 -1.56317,3.50486 -3.50486,3.50486 0,0 -99.65693,0 -99.65693,0 -1.9417,0 -3.50486,-1.56317 -3.50486,-3.50486 0,0 0,-99.656921 0,-99.656921 0,-1.9417 1.56316,-3.50487 3.50486,-3.50487 0,0 0,0 0,0"
     style="color:#000000;clip-rule:nonzero;display:inline;overflow:visible;visibility:visible;opacity:1;isolation:auto;mix-blend-mode:normal;color-interpolation:sRGB;color-interpolation-filters:linearRGB;solid-color:#000000;solid-opacity:1;fill:#eee4da;fill-opacity:0;fill-rule:evenodd;stroke:#000000;stroke-width:8;stroke-linecap:butt;stroke-linejoin:miter;stroke-miterlimit:4;stroke-dasharray:none;stroke-dashoffset:0;stroke-opacity:1;color-rendering:auto;image-rendering:auto;shape-rendering:auto;text-rendering:auto;enable-background:accumulate"
     id="path4520" /><path
     inkscape:connector-curvature="0"
     d="m 355.29186,196.97898 c 0,0 99.65693,0 99.65693,0 1.94169,0 3.50486,1.56317 3.50486,3.50487 0,0 0,99.65693 0,99.65693 0,1.9417 -1.56317,3.50486 -3.50486,3.50486 0,0 -99.65693,0 -99.65693,0 -1.9417,0 -3.50486,-1.56316 -3.50486,-3.50486 0,0 0,-99.65693 0,-99.65693 0,-1.9417 1.56316,-3.50487 3.50486,-3.50487 0,0 0,0 0,0"
     style="color:#000000;clip-rule:nonzero;display:inline;overflow:visible;visibility:visible;opacity:1;isolation:auto;mix-blend-mode:normal;color-interpolation:sRGB;color-interpolation-filters:linearRGB;solid-color:#000000;solid-opacity:1;fill:#edcf72;fill-opacity:0;fill-rule:evenodd;stroke:#000000;stroke-width:8;stroke-linecap:butt;stroke-linejoin:miter;stroke-miterlimit:4;stroke-dasharray:none;stroke-dashoffset:0;stroke-opacity:1;color-rendering:auto;image-rendering:auto;shape-rendering:auto;text-rendering:auto;enable-background:accumulate"
     id="path4522" /><text
     id="text4575"
     y="148.75871"
     x="405.84949"
     style="color:#000000;font-style:normal;font-variant:normal;font-weight:bold;font-stretch:normal;font-size:12.8px;line-height:0%;font-family:sans-serif;-inkscape-font-specification:'sans-serif Bold';text-indent:0;text-align:center;text-decoration:none;text-decoration-line:none;text-decoration-style:solid;text-decoration-color:#000000;letter-spacing:0px;word-spacing:0px;text-transform:none;writing-mode:lr-tb;direction:ltr;baseline-shift:baseline;text-anchor:middle;white-space:normal;clip-rule:nonzero;display:inline;overflow:visible;visibility:visible;opacity:1;isolation:auto;mix-blend-mode:normal;color-interpolation:sRGB;color-interpolation-filters:linearRGB;solid-color:#000000;solid-opacity:1;fill:#000000;fill-opacity:1;fill-rule:nonzero;stroke:none;stroke-width:1.06667px;stroke-linecap:butt;stroke-linejoin:miter;stroke-miterlimit:4;stroke-dasharray:none;stroke-dashoffset:0;stroke-opacity:1;color-rendering:auto;image-rendering:auto;shape-rendering:auto;text-rendering:auto;enable-background:accumulate"
     xml:space="preserve"><tspan
       style="font-size:53.3333px;line-height:1.25;fill:#000000;fill-opacity:1;stroke-width:1.06667px"
       y="148.75871"
       x="405.84949"
       id="tspan4577"
       sodipodi:role="line">2</tspan></text><text
     xml:space="preserve"
     style="color:#000000;font-style:normal;font-variant:normal;font-weight:bold;font-stretch:normal;font-size:12.8px;line-height:0%;font-family:sans-serif;-inkscape-font-specification:'sans-serif Bold';text-indent:0;text-align:center;text-decoration:none;text-decoration-line:none;text-decoration-style:solid;text-decoration-color:#000000;letter-spacing:0px;word-spacing:0px;text-transform:none;writing-mode:lr-tb;direction:ltr;baseline-shift:baseline;text-anchor:middle;white-space:normal;clip-rule:nonzero;display:inline;overflow:visible;visibility:visible;opacity:1;isolation:auto;mix-blend-mode:normal;color-interpolation:sRGB;color-interpolation-filters:linearRGB;solid-color:#000000;solid-opacity:1;fill:#000000;fill-opacity:1;fill-rule:nonzero;stroke:none;stroke-width:1.06667px;stroke-linecap:butt;stroke-linejoin:miter;stroke-miterlimit:4;stroke-dasharray:none;stroke-dashoffset:0;stroke-opacity:1;color-rendering:auto;image-rendering:auto;shape-rendering:auto;text-rendering:auto;enable-background:accumulate"
     x="284.88666"
     y="391.44919"
     id="text4583"><tspan
       style="font-size:53.3333px;line-height:1.25;fill:#000000;fill-opacity:1;stroke-width:1.06667px"
       sodipodi:role="line"
       id="tspan4585"
       x="284.88666"
       y="391.44919">2</tspan></text><text
     id="text4587"
     y="148.75871"
     x="163.92383"
     style="font-style:normal;font-variant:normal;font-weight:bold;font-stretch:normal;font-size:12.8px;line-height:0%;font-family:sans-serif;-inkscape-font-specification:'sans-serif Bold';text-align:center;letter-spacing:0px;word-spacing:0px;text-anchor:middle;display:inline;opacity:1;fill:#000000;fill-opacity:1;stroke:none;stroke-width:1.06667px;stroke-linecap:butt;stroke-linejoin:miter;stroke-opacity:1"
     xml:space="preserve"><tspan
       style="font-size:53.3333px;line-height:1.25;fill:#000000;fill-opacity:1;stroke-width:1.06667px"
       y="148.75871"
       x="163.92383"
       id="tspan4589"
       sodipodi:role="line">4</tspan></text><text
     id="text4595"
     y="269.75238"
     x="163.92383"
     style="font-style:normal;font-variant:normal;font-weight:bold;font-stretch:normal;font-size:12.8px;line-height:0%;font-family:sans-serif;-inkscape-font-specification:'sans-serif Bold';text-align:center;letter-spacing:0px;word-spacing:0px;text-anchor:middle;display:inline;opacity:1;fill:#000000;fill-opacity:1;stroke:none;stroke-width:1.06667px;stroke-linecap:butt;stroke-linejoin:miter;stroke-opacity:1"
     xml:space="preserve"><tspan
       style="font-size:53.3333px;line-height:1.25;fill:#000000;fill-opacity:1;stroke-width:1.06667px"
       y="269.75238"
       x="163.92383"
       id="tspan4597"
       sodipodi:role="line">8</tspan></text><text
     xml:space="preserve"
     style="color:#000000;font-style:normal;font-variant:normal;font-weight:bold;font-stretch:normal;font-size:12.8px;line-height:0%;font-family:sans-serif;-inkscape-font-specification:'sans-serif Bold';text-indent:0;text-align:center;text-decoration:none;text-decoration-line:none;text-decoration-style:solid;text-decoration-color:#000000;letter-spacing:0px;word-spacing:0px;text-transform:none;writing-mode:lr-tb;direction:ltr;baseline-shift:baseline;text-anchor:middle;white-space:normal;clip-rule:nonzero;display:inline;overflow:visible;visibility:visible;opacity:1;isolation:auto;mix-blend-mode:normal;color-interpolation:sRGB;color-interpolation-filters:linearRGB;solid-color:#000000;solid-opacity:1;fill:#000000;fill-opacity:1;fill-rule:nonzero;stroke:none;stroke-width:1.06667px;stroke-linecap:butt;stroke-linejoin:miter;stroke-miterlimit:4;stroke-dasharray:none;stroke-dashoffset:0;stroke-opacity:1;color-rendering:auto;image-rendering:auto;shape-rendering:auto;text-rendering:auto;enable-background:accumulate"
     x="284.18353"
     y="269.72635"
     id="text4601"><tspan
       style="font-size:53.3333px;line-height:1.25;fill:#000000;fill-opacity:1;stroke:none;stroke-width:1.06667px;stroke-opacity:1"
       sodipodi:role="line"
       id="tspan4603"
       x="284.18353"
       y="269.72635">64</tspan></text><text
     xml:space="preserve"
     style="color:#000000;font-style:normal;font-variant:normal;font-weight:bold;font-stretch:normal;font-size:12.8px;line-height:0%;font-family:sans-serif;-inkscape-font-specification:'sans-serif Bold';text-indent:0;text-align:center;text-decoration:none;text-decoration-line:none;text-decoration-style:solid;text-decoration-color:#000000;letter-spacing:0px;word-spacing:0px;text-transform:none;writing-mode:lr-tb;direction:ltr;baseline-shift:baseline;text-anchor:middle;white-space:normal;clip-rule:nonzero;display:inline;overflow:visible;visibility:visible;opacity:1;isolation:auto;mix-blend-mode:normal;color-interpolation:sRGB;color-interpolation-filters:linearRGB;solid-color:#000000;solid-opacity:1;fill:#000000;fill-opacity:1;fill-rule:nonzero;stroke:none;stroke-width:1.06667px;stroke-linecap:butt;stroke-linejoin:miter;stroke-miterlimit:4;stroke-dasharray:none;stroke-dashoffset:0;stroke-opacity:1;color-rendering:auto;image-rendering:auto;shape-rendering:auto;text-rendering:auto;enable-background:accumulate"
     x="423.17218"
     y="254.98706"
     id="text4609"
     transform="scale(0.95480097,1.0473387)"><tspan
       style="font-size:43.9231px;line-height:1.25;fill:#000000;fill-opacity:1;stroke-width:1.06667px"
       sodipodi:role="line"
       id="tspan4611"
       x="423.17218"
       y="254.98706">128</tspan></text><text
     xml:space="preserve"
     style="color:#000000;font-style:normal;font-variant:normal;font-weight:bold;font-stretch:normal;font-size:12.8px;line-height:0%;font-family:sans-serif;-inkscape-font-specification:'sans-serif Bold';text-indent:0;text-align:center;text-decoration:none;text-decoration-line:none;text-decoration-style:solid;text-decoration-color:#000000;letter-spacing:0px;word-spacing:0px;text-transform:none;writing-mode:lr-tb;direction:ltr;baseline-shift:baseline;text-anchor:middle;white-space:normal;clip-rule:nonzero;display:inline;overflow:visible;visibility:visible;opacity:1;isolation:auto;mix-blend-mode:normal;color-interpolation:sRGB;color-interpolation-filters:linearRGB;solid-color:#000000;solid-opacity:1;fill:#000000;fill-opacity:1;fill-rule:nonzero;stroke:none;stroke-width:1.06667px;stroke-linecap:butt;stroke-linejoin:miter;stroke-miterlimit:4;stroke-dasharray:none;stroke-dashoffset:0;stroke-opacity:1;color-rendering:auto;image-rendering:auto;shape-rendering:auto;text-rendering:auto;enable-background:accumulate"
     x="405.98401"
     y="384.04633"
     id="text4613"><tspan
       sodipodi:role="line"
       id="tspan4615"
       x="405.98401"
       y="384.04633"
       style="font-size:34.0333px;line-height:1.25;fill:#000000;fill-opacity:1;stroke-width:1.06667px">2048</tspan></text></g></svg>
