<svg xml:space="preserve" style="enable-background:new 0 0 512 512" height="512" width="512" xmlns="http://www.w3.org/2000/svg"><g style="font-size:101.619px;line-height:1.25;stroke-width:2.52603"><g style="font-size:135.985px;stroke-width:2.57628"><path d="M224.293 170.766v-11.82l25.032-25.165q11.089-11.354 14.675-16.068 3.651-4.78 5.311-8.964 1.66-4.183 1.66-8.964 0-6.573-3.984-10.358-3.917-3.785-10.889-3.785-5.577 0-10.823 2.058-5.18 2.059-12.018 7.437l-8.433-10.292q8.1-6.839 15.737-9.694 7.636-2.855 16.267-2.855 13.546 0 21.713 7.105 8.167 7.038 8.167 18.99 0 6.573-2.39 12.483-2.324 5.91-7.238 12.217-4.847 6.242-16.201 16.932l-16.866 16.334v.664h46.081v13.745z" style="font-weight:600;font-family:'Open Sans';-inkscape-font-specification:'Open Sans Semi-Bold'" transform="matrix(.9805 0 0 .9805 4.483 5.78)" aria-label="2"/></g><g style="font-size:135.985px;stroke-width:2.57628"><path d="M351.286 256.145q0-25.696 8.1-37.847 8.168-12.218 24.834-12.218 16.268 0 24.634 12.749 8.366 12.748 8.366 37.316 0 25.298-8.167 37.582-8.1 12.284-24.833 12.284-16.201 0-24.568-12.683-8.366-12.682-8.366-37.183zm15.803 0q0 19.853 4.05 28.352 4.117 8.5 13.081 8.5 8.964 0 13.08-8.633 4.184-8.631 4.184-28.22 0-19.52-4.183-28.219-4.117-8.764-13.081-8.764-8.964 0-13.08 8.565-4.05 8.566-4.05 28.419z" style="font-weight:600;font-family:'Open Sans';-inkscape-font-specification:'Open Sans Semi-Bold'" transform="matrix(.9805 0 0 .9805 4.483 5.78)" aria-label="0"/></g><g style="font-size:135.985px;stroke-width:2.57628"><path d="M83.887 279.746v-12.018l44.355-64.141h15.205v63.212h13.08v12.947h-13.08v21.182h-15.205v-21.182zM98.43 266.8h29.813V242.43q0-13.014.664-21.314h-.531q-1.86 4.382-5.843 10.624z" style="font-weight:600;font-family:'Open Sans';-inkscape-font-specification:'Open Sans Semi-Bold'" transform="matrix(.9805 0 0 .9805 4.483 5.78)" aria-label="4"/></g><g style="font-size:135.985px;stroke-width:2.57628"><path d="M223.25 408.213q0-8.1 4.516-14.542 4.581-6.507 14.94-11.553-8.898-5.312-12.683-11.221-3.784-5.91-3.784-13.28 0-10.558 8.3-16.8 8.3-6.307 21.646-6.307 13.81 0 21.845 6.374 8.034 6.308 8.034 16.932 0 14.94-17.928 23.77 11.42 5.711 16.202 12.02 4.847 6.307 4.847 14.076 0 12.018-8.831 19.255-8.831 7.238-23.904 7.238-15.803 0-24.501-6.773t-8.698-19.19zm14.94-.531q0 6.905 4.848 10.756 4.847 3.785 13.147 3.785 8.565 0 13.28-3.918 4.78-3.983 4.78-10.756 0-5.378-4.382-9.827-4.383-4.449-13.28-8.234l-1.926-.863q-8.764 3.851-12.615 8.5-3.852 4.58-3.852 10.557zm3.121-48.936q0 3.452 1.46 6.175 1.462 2.722 4.25 4.98 2.79 2.19 9.43 5.312 7.967-3.52 11.22-7.37 3.32-3.918 3.32-9.097 0-5.644-4.116-8.898-4.05-3.32-10.823-3.32-6.64 0-10.69 3.32-4.05 3.254-4.05 8.898z" style="font-weight:600;font-family:'Open Sans';-inkscape-font-specification:'Open Sans Semi-Bold'" transform="matrix(.9805 0 0 .9805 4.483 5.78)" aria-label="8"/></g></g><path style="fill:#000;fill-opacity:1;stroke-width:5.88298;stroke-linejoin:round" d="M521.64 217.67a16.386 16.386 0 0 0 0 23.224L635.294 354.55a16.387 16.387 0 0 0 23.224 0l113.654-113.655a16.385 16.385 0 0 0 0-23.223L658.518 104.016a16.385 16.385 0 0 0-23.224 0zm17.903 4.307L639.6 121.92a10.31 10.31 0 0 1 14.613 0L754.27 221.975a10.31 10.31 0 0 1-.001 14.612L654.21 336.645a10.308 10.308 0 0 1-14.61 0L539.542 236.588a10.308 10.308 0 0 1 0-14.61z" transform="translate(-390.842 152.532)"/><path style="fill:#000;fill-opacity:1;stroke-width:5.88298;stroke-linejoin:round" d="M395.867 91.896a16.386 16.386 0 0 0 0 23.225L509.52 228.776a16.386 16.386 0 0 0 23.225-.002l113.653-113.653a16.385 16.385 0 0 0 0-23.223L532.744-21.757a16.385 16.385 0 0 0-23.223 0zm17.903 4.308L513.827-3.853a10.31 10.31 0 0 1 14.612-.001L628.496 96.203a10.31 10.31 0 0 1 0 14.612L528.437 210.872a10.308 10.308 0 0 1-14.611 0L413.77 110.815a10.308 10.308 0 0 1 0-14.611z" transform="translate(-390.842 152.532)"/><path style="fill:#000;fill-opacity:1;stroke-width:5.88298;stroke-linejoin:round" d="M647.412 91.898a16.386 16.386 0 0 0 0 23.224l113.654 113.656a16.387 16.387 0 0 0 23.225-.001l113.654-113.655a16.385 16.385 0 0 0 0-23.223L784.289-21.756a16.385 16.385 0 0 0-23.223 0zm17.903 4.307L765.372-3.852a10.31 10.31 0 0 1 14.613-.001L880.042 96.204a10.31 10.31 0 0 1-.001 14.612L779.983 210.873a10.308 10.308 0 0 1-14.61 0L665.314 110.816a10.308 10.308 0 0 1 0-14.61z" transform="translate(-390.842 152.532)"/><path style="fill:#000;fill-opacity:1;stroke-width:5.88298;stroke-linejoin:round" d="M521.64-33.876a16.386 16.386 0 0 0-.002 23.225l113.655 113.655a16.386 16.386 0 0 0 23.224-.002L772.171-10.65a16.385 16.385 0 0 0 0-23.223L658.516-147.53a16.385 16.385 0 0 0-23.223 0zm17.902 4.308L639.6-129.625a10.31 10.31 0 0 1 14.612 0L754.268-29.57a10.31 10.31 0 0 1 0 14.612L654.21 85.1a10.308 10.308 0 0 1-14.611 0L539.542-14.957a10.308 10.308 0 0 1 0-14.611z" transform="translate(-390.842 152.532)"/></svg>